<svg width="387" height="304" viewBox="0 0 387 304" fill="none" xmlns="http://www.w3.org/2000/svg">
<path d="M79.1379 51L189.638 4L299.138 51C310.799 56.9326 314.497 62.4878 317.138 75.5L304.138 210.5C294.511 224.649 285.84 226.313 268.138 225H107.138C91.6436 222.386 85.2877 218.763 79.1379 207.5L64.6379 97.5C62.8125 72.9523 64.1194 61.1775 79.1379 51Z" fill="#D9D9D9"/>
<path d="M79.1379 51L189.638 4L299.138 51M79.1379 51H299.138M79.1379 51C64.1194 61.1775 62.8125 72.9523 64.6379 97.5L79.1379 207.5C85.2877 218.763 91.6436 222.386 107.138 225H268.138C285.84 226.313 294.511 224.649 304.138 210.5L317.138 75.5C314.497 62.4878 310.799 56.9326 299.138 51M99.6379 82C108.288 71.2212 115.333 67.5403 131.638 65M255.638 67.5C268.472 66.132 274.873 69.0665 284.638 82M134.638 79C125.971 79.3137 121.874 80.4532 118.138 87C109.68 102.303 108.266 106.921 107.138 113.5C105.577 126.58 107.347 132.383 112.638 141.5C118.973 148.601 122.38 151.342 128.138 153.5L141.638 155.5C150.03 151.981 153.479 149.042 156.638 141.5C161.062 129.979 162.299 123.84 162.138 113.5C160.744 105.595 160.132 98.9032 156.638 91.5C154.535 87.0193 154.351 84.6892 145.638 79H134.638ZM247.138 79C236.619 82.5747 230.973 85.124 223.138 94.5C219.271 107.662 217.92 114.911 217.638 127.5C221.573 138.632 224.569 144.296 231.138 153.5C244.655 160.436 248.52 158.538 255.638 155.5C261.25 151.755 264.001 147.351 268.138 135C271.371 126.411 271.693 120.026 272.138 108.5C269.673 102.478 267.834 98.674 264.138 91.5C261.156 85.2768 257.061 82.6767 247.138 79Z" stroke="#20031A" stroke-width="7"/>
<path d="M196 206.5C176.958 212.065 167.484 192.154 162.5 170H241.5C243.269 190.82 215.042 200.935 196 206.5Z" fill="#1E0318" stroke="#20051A" stroke-width="7"/>
<path d="M119.546 83C123.283 76.4532 127.38 75.3137 136.046 75H147.046C155.76 80.6892 155.943 83.0193 158.046 87.5C161.541 94.9032 162.152 101.595 163.546 109.5C163.708 119.84 162.471 125.979 158.046 137.5C154.887 145.042 151.439 147.981 143.046 151.5L129.546 149.5C123.789 147.342 120.381 144.601 114.046 137.5C108.755 128.383 106.985 122.58 108.546 109.5C109.674 102.921 111.088 98.3028 119.546 83Z" fill="#20031A"/>
<path d="M224.546 90.5C232.382 81.124 238.027 78.5747 248.546 75C258.469 78.6767 262.564 81.2768 265.546 87.5C269.243 94.674 271.082 98.4778 273.546 104.5C273.101 116.026 272.779 122.411 269.546 131C265.409 143.351 262.658 147.755 257.046 151.5C249.929 154.538 246.063 156.436 232.546 149.5C225.978 140.296 222.982 134.632 219.046 123.5C219.328 110.911 220.68 103.662 224.546 90.5Z" fill="#20031A"/>
<path d="M119.546 83C123.283 76.4532 127.38 75.3137 136.046 75H147.046C155.76 80.6892 155.943 83.0193 158.046 87.5C161.541 94.9032 162.152 101.595 163.546 109.5C163.708 119.84 162.471 125.979 158.046 137.5C154.887 145.042 151.439 147.981 143.046 151.5L129.546 149.5C123.789 147.342 120.381 144.601 114.046 137.5C108.755 128.383 106.985 122.58 108.546 109.5C109.674 102.921 111.088 98.3028 119.546 83Z" stroke="#20031A" stroke-width="7"/>
<path d="M224.546 90.5C232.382 81.124 238.027 78.5747 248.546 75C258.469 78.6767 262.564 81.2768 265.546 87.5C269.243 94.674 271.082 98.4778 273.546 104.5C273.101 116.026 272.779 122.411 269.546 131C265.409 143.351 262.658 147.755 257.046 151.5C249.929 154.538 246.063 156.436 232.546 149.5C225.978 140.296 222.982 134.632 219.046 123.5C219.328 110.911 220.68 103.662 224.546 90.5Z" stroke="#20031A" stroke-width="7"/>
<path d="M116 113.175C116 113.175 119.864 99.7455 122.589 97.8863C126.033 94.9026 128.123 92.8172 122.589 113.175C122.033 117.281 116 113.175 116 113.175Z" fill="#FDFFFD" stroke="#FDFFFD" stroke-width="2"/>
<path d="M228 113.175C228 113.175 231.864 99.7455 234.589 97.8863C238.033 94.9026 240.123 92.8172 234.589 113.175C234.033 117.281 228 113.175 228 113.175Z" fill="#FDFFFD" stroke="#FDFFFD" stroke-width="2"/>
<circle cx="141.5" cy="124.5" r="9.5" fill="#FEFDFD"/>
<circle cx="251.5" cy="124.5" r="9.5" fill="#FEFDFD"/>
<path d="M6 222.5C28.6785 200.522 41.7194 188.384 72.5 171C76.6727 188.183 76.0684 197.817 72.5 215L63.5 228L72.5 235C88.6276 239.001 95.2694 243.805 99.5 260.5H117.5L109 228H165H217.25H269.5L253.5 298.5H215H165H126.5L117.5 260.5H99.5C96.9346 270.836 93.774 276.116 78 282.5C64.9677 281.42 58.8987 278.401 54.5 260.5L43.5 264.5C26.1076 249.271 13.5741 239.434 6 222.5Z" fill="#D9D9D9"/>
<path d="M6 222.5C28.6785 200.522 41.7194 188.384 72.5 171C76.6727 188.183 76.0684 197.817 72.5 215L63.5 228M6 222.5C13.5741 239.434 26.1076 249.271 43.5 264.5M6 222.5C28.4253 220.313 41.0135 221.291 63.5 228M43.5 264.5C54.1145 251.595 57.2452 243.162 72.5 235M43.5 264.5L54.5 260.5C58.8987 278.401 64.9677 281.42 78 282.5C93.774 276.116 96.9346 270.836 99.5 260.5M72.5 235L63.5 228M72.5 235C88.6276 239.001 95.2694 243.805 99.5 260.5M99.5 260.5H117.5M117.5 260.5L109 228H165M117.5 260.5L126.5 298.5H165M165 228C175.164 237.913 179.079 244.875 182 260.5C183.489 279.476 177.99 286.892 165 298.5M165 228H217.25M165 298.5H215M217.25 228H269.5L253.5 298.5H215M217.25 228C206.09 237.355 202.651 244.635 200.5 260.5C198.598 276.757 201.543 285.12 215 298.5" stroke="#20051A" stroke-width="9"/>
<path d="M381 222.702C357.504 200.637 343.993 188.452 312.102 171C307.779 188.25 308.405 197.922 312.102 215.173L321.427 228.224L312.102 235.251C295.393 239.268 288.512 244.09 284.129 260.851H265.48L274.287 228.224H216.268H162.134H108L124.577 299H164.465H216.268H256.156L265.48 260.851H284.129C286.787 271.228 290.062 276.528 306.404 282.937C319.906 281.853 326.194 278.822 330.751 260.851L342.148 264.867C360.167 249.578 373.153 239.702 381 222.702Z" fill="#D9D9D9"/>
<path d="M381 222.702C357.504 200.637 343.993 188.452 312.102 171C307.779 188.25 308.405 197.922 312.102 215.173L321.427 228.224M381 222.702C373.153 239.702 360.167 249.578 342.148 264.867M381 222.702C357.766 220.507 344.724 221.488 321.427 228.224M342.148 264.867C331.151 251.911 327.907 243.445 312.102 235.251M342.148 264.867L330.751 260.851C326.194 278.822 319.906 281.853 306.404 282.937C290.062 276.528 286.787 271.228 284.129 260.851M312.102 235.251L321.427 228.224M312.102 235.251C295.393 239.268 288.512 244.09 284.129 260.851M284.129 260.851H265.48M265.48 260.851L274.287 228.224H216.268M265.48 260.851L256.156 299H216.268M216.268 228.224C205.737 238.175 201.681 245.165 198.655 260.851C197.112 279.901 202.809 287.346 216.268 299M216.268 228.224H162.134M216.268 299H164.465M162.134 228.224H108L124.577 299H164.465M162.134 228.224C173.697 237.615 177.259 244.924 179.488 260.851C181.458 277.171 178.407 285.567 164.465 299" stroke="#20051A" stroke-width="9"/>
</svg>
